<?xml version="1.0" encoding="utf-8"?>
<!-- Generator: Adobe Illustrator 19.1.1, SVG Export Plug-In . SVG Version: 6.00 Build 0)  -->
<svg version="1.1"
	 id="Layer_1" xmlns:svg="http://www.w3.org/2000/svg" xmlns:sodipodi="http://sodipodi.sourceforge.net/DTD/sodipodi-0.dtd" xmlns:inkscape="http://www.inkscape.org/namespaces/inkscape" xmlns:dc="http://purl.org/dc/elements/1.1/" xmlns:cc="http://creativecommons.org/ns#" xmlns:rdf="http://www.w3.org/1999/02/22-rdf-syntax-ns#"
	 xmlns="http://www.w3.org/2000/svg" xmlns:xlink="http://www.w3.org/1999/xlink" x="0px" y="0px" viewBox="604 418.8 216.2 243.5"
	 style="enable-background:new 604 418.8 216.2 243.5;" xml:space="preserve">
<style type="text/css">
	.st0{fill:#FFFFFF;}
</style>
<g>
	<path class="st0" d="M815.3,652.4h-85.7v-78.3h50.5c1.3,0,2.5-0.5,3.4-1.4l21.8-20.7c1-0.9,1.5-2.2,1.5-3.6c0-1.4-0.6-2.6-1.5-3.6
		l-21.8-20.7c-0.9-0.9-2.1-1.4-3.4-1.4h-50.5v-24.7h50.5c1.3,0,2.5-0.5,3.4-1.4l21.8-20.7c1-0.9,1.5-2.2,1.5-3.6
		c0-1.4-0.6-2.6-1.5-3.6l-21.8-20.7c-0.9-0.9-2.1-1.4-3.4-1.4h-50.5v-9.3c0-9.4-7.6-17.1-17.1-17.1c-9.4,0-17,7.6-17.1,17.1v9.3H645
		c-1.3,0-2.5,0.5-3.4,1.4l-21.8,20.7c-1,0.9-1.5,2.2-1.5,3.6c0,1.4,0.6,2.6,1.5,3.6l21.8,20.7c0.9,0.9,2.1,1.4,3.4,1.4h50.5v74.5
		H645c-1.3,0-2.5,0.5-3.4,1.4l-21.8,20.7c-1,0.9-1.5,2.2-1.5,3.6s0.6,2.6,1.5,3.6l21.8,20.7c0.9,0.9,2.1,1.4,3.4,1.4h50.5v28.5
		h-85.7c-2.7,0-4.9,2.2-4.9,4.9c0,2.7,2.2,4.9,4.9,4.9h205.5c2.7,0,4.9-2.2,4.9-4.9C820.2,654.6,818,652.4,815.3,652.4z M695.5,614
		H647l-16.6-15.8l16.6-15.8h48.6V614L695.5,614z M778.2,532.7l16.6,15.8l-16.6,15.8h-48.6v-31.5H778.2L778.2,532.7z M705.4,437.5
		c0-4,3.2-7.2,7.2-7.2c4,0,7.2,3.2,7.2,7.2v9.3h-14.4V437.5z M647,488.3l-16.6-15.8l16.6-15.8h131.2l16.6,15.8l-16.6,15.8H647z
		 M719.8,652.4h-14.4V498.1h14.4V652.4z"/>
</g>
</svg>
