<?xml version="1.0" encoding="utf-8"?>
<!-- Generator: Adobe Illustrator 19.1.1, SVG Export Plug-In . SVG Version: 6.00 Build 0)  -->
<svg version="1.1" id="Layer_1" xmlns="http://www.w3.org/2000/svg" xmlns:xlink="http://www.w3.org/1999/xlink" x="0px" y="0px"
	 viewBox="-253.7 335.7 95.7 95.3" style="enable-background:new -253.7 335.7 95.7 95.3;" xml:space="preserve">
<style type="text/css">
	.st0{fill:#FFFFFF;}
</style>
<path class="st0" d="M-164.5,337c0.4,0,0.5,0,0.9,0.1c0.6,0.1,1.2,0.3,1.7,0.6c0.6,0.3,1.1,0.6,1.5,1c0.8,0.7,1.4,1.6,1.8,2.6
	c0.4,1,0.6,2.1,0.5,3.2c-0.1,0.8-0.2,1.5-0.6,2.2c-0.2,0.4-0.2,0.5-0.4,0.8l-29,48.3V424l0,0.5c0,0.4,0,0.5-0.1,0.9
	c-0.1,0.6-0.3,1.2-0.6,1.7c-0.5,1-1.2,1.8-2,2.5c-0.9,0.7-1.9,1.1-2.9,1.3c-0.6,0.1-1.2,0.2-1.8,0.1c-0.6,0-1.2-0.2-1.8-0.4
	c-0.4-0.1-0.5-0.2-0.8-0.4l-20-10c-0.1-0.1-0.3-0.1-0.4-0.2c-0.4-0.2-0.8-0.5-1.1-0.8c-1.1-1-1.9-2.4-2.2-3.9
	c-0.1-0.3-0.1-0.6-0.1-0.9c0-0.2,0-0.3,0-0.5v-18.1l-29-48.3l-0.2-0.4c-0.2-0.4-0.2-0.5-0.4-0.8c-0.2-0.6-0.3-1.2-0.4-1.8
	c0-0.6,0-1.2,0.1-1.8c0.2-1.1,0.6-2.1,1.3-2.9c0.7-0.9,1.5-1.6,2.5-2c0.7-0.3,1.4-0.6,2.2-0.7c0.4-0.1,0.5,0,0.9-0.1h80
	C-164.8,337-164.7,337-164.5,337z M-245,344l30,50v20l20,10v-30l30-50C-191.7,344-218.3,344-245,344z"/>
</svg>
